<!DOCTYPE svg PUBLIC "-//W3C//DTD SVG 20010904//EN" "http://www.w3.org/TR/2001/REC-SVG-20010904/DTD/svg10.dtd">
<svg version="1.0" xmlns="http://www.w3.org/2000/svg" width="1053px" height="594px" viewBox="0 0 10530 5940" preserveAspectRatio="xMidYMid meet">
<g id="layer101" fill="#364f6b" stroke="none">
 <path d="M0 2970 l0 -2970 5265 0 5265 0 0 2970 0 2970 -5265 0 -5265 0 0 -2970z"/>
 </g>
<g id="layer102" fill="#ffffff" stroke="none">
 <path d="M0 2970 l0 -2970 5265 0 5265 0 0 2970 0 2970 -5265 0 -5265 0 0 -2970z m3715 2505 c115 -30 215 -107 264 -203 86 -169 59 -394 -63 -529 -84 -93 -213 -140 -361 -130 -230 15 -382 167 -401 402 -22 269 162 472 431 474 39 1 97 -6 130 -14z m2229 -15 c33 -13 78 -40 101 -61 23 -22 45 -39 49 -39 3 0 6 25 6 55 l0 55 90 0 90 0 0 -317 c0 -312 -1 -319 -24 -368 -79 -171 -344 -225 -606 -124 -121 46 -119 42 -76 128 23 44 42 71 49 67 183 -81 331 -97 416 -45 33 20 61 71 61 112 l0 23 -108 -4 c-233 -10 -426 68 -483 193 -43 93 -10 233 68 292 88 67 241 81 367 33z m1186 11 c28 -11 66 -31 85 -45 18 -14 36 -26 39 -26 3 0 6 16 6 35 l0 35 90 0 90 0 0 -585 0 -585 -173 0 -172 0 0 85 0 85 82 0 83 0 0 116 0 116 -22 -16 c-80 -57 -121 -71 -213 -71 -82 0 -97 3 -157 33 -138 68 -218 217 -218 407 0 252 154 432 372 434 34 1 78 -7 108 -18z m1251 5 c37 -8 86 -24 110 -37 54 -27 119 -77 119 -91 0 -9 -41 -69 -86 -127 -1 -1 -18 9 -38 24 -112 85 -314 98 -414 25 -39 -28 -74 -75 -87 -117 l-6 -23 352 0 352 0 -6 -77 c-24 -308 -259 -493 -549 -432 -224 47 -367 263 -331 500 41 264 292 416 584 355z m-6139 -423 l3 -418 170 417 170 418 108 0 107 0 0 -585 0 -585 -90 0 -90 0 0 385 c0 212 -4 385 -8 385 -5 0 -64 -136 -132 -302 -68 -167 -139 -340 -158 -385 l-34 -83 -119 0 -119 0 0 585 0 585 95 0 95 0 2 -417z m2280 103 c3 -301 4 -316 24 -343 27 -37 67 -42 88 -11 14 19 16 66 16 345 l0 323 94 0 94 0 4 -302 c3 -253 7 -309 20 -340 26 -58 88 -65 108 -13 6 15 10 158 10 341 l0 314 96 0 95 0 -3 -352 -3 -353 -28 -58 c-22 -44 -38 -62 -67 -77 -78 -40 -173 -18 -218 50 -13 19 -26 36 -30 37 -4 2 -14 -12 -22 -30 -24 -51 -75 -80 -133 -74 -57 5 -94 29 -124 83 l-23 39 0 -52 0 -53 -95 0 -95 0 0 420 0 420 94 0 95 0 3 -314z m-3364 -1455 c7 -4 143 -137 301 -294 l287 -287 85 0 84 0 -225 225 -225 225 0 46 c0 39 5 50 30 70 20 16 43 24 69 24 38 0 48 -8 336 -295 l296 -295 84 0 84 0 -227 228 c-222 223 -227 229 -227 269 0 34 6 46 31 67 30 26 81 34 106 18 7 -5 143 -137 302 -295 l289 -287 821 0 c451 0 821 1 821 3 0 1 -36 110 -80 242 -44 132 -80 245 -80 252 0 11 218 13 1110 13 881 0 1110 -3 1110 -12 0 -7 -38 -121 -84 -253 l-84 -240 861 -3 861 -2 266 265 c254 252 268 265 304 265 27 0 217 -77 669 -270 671 -287 687 -296 687 -360 0 -64 -16 -73 -687 -360 -399 -170 -644 -270 -664 -270 -30 0 -59 26 -299 265 l-265 265 -485 0 -485 0 -355 -1050 c-195 -577 -358 -1046 -361 -1042 -3 4 -95 271 -204 595 -109 323 -201 587 -205 587 -3 0 -134 -387 -290 -860 -157 -473 -287 -860 -290 -860 -3 0 -133 383 -289 851 -155 467 -284 849 -286 847 -1 -2 -89 -259 -195 -573 -106 -313 -196 -576 -200 -583 -4 -8 -85 216 -196 545 -103 307 -263 779 -354 1048 l-167 490 -454 3 -453 2 -296 -295 c-283 -283 -297 -295 -334 -295 -55 0 -96 43 -96 101 0 43 2 45 222 266 l222 223 -79 0 -80 0 -295 -295 c-283 -282 -297 -295 -334 -295 -48 0 -72 13 -92 52 -31 60 -21 76 219 316 l222 222 -85 0 -85 0 -295 -295 c-283 -283 -297 -295 -334 -295 -55 0 -96 43 -96 101 0 43 1 44 272 316 l273 273 -147 148 c-80 81 -203 205 -272 277 -120 124 -126 132 -126 171 0 35 5 47 31 68 31 26 81 34 107 17z"/>
 <path d="M3520 5311 c-111 -36 -170 -114 -178 -237 -8 -123 39 -218 132 -267 32 -17 58 -22 116 -22 83 0 134 20 181 72 53 56 64 91 64 193 0 74 -4 103 -19 130 -26 50 -65 89 -111 112 -43 22 -144 33 -185 19z"/>
 <path d="M5751 5310 c-45 -11 -70 -38 -78 -83 -5 -33 -2 -41 29 -70 19 -18 52 -38 74 -45 50 -16 217 -27 277 -18 52 8 54 14 36 78 -28 104 -195 172 -338 138z"/>
 <path d="M6992 5307 c-100 -38 -153 -127 -153 -257 0 -69 4 -91 26 -136 64 -130 206 -170 339 -96 l51 29 0 203 0 203 -53 29 c-61 35 -155 46 -210 25z"/>
 <path d="M7995 4938 c32 -108 180 -182 300 -149 64 17 132 65 155 110 11 22 20 45 20 51 0 7 -81 10 -241 10 l-240 0 6 -22z"/>
 <path d="M4370 3447 c0 -12 311 -947 315 -947 3 0 126 99 275 220 171 140 275 218 283 214 6 -5 128 -95 269 -201 142 -106 261 -193 266 -193 4 0 54 141 110 313 56 171 125 374 152 450 l49 137 -607 0 c-334 0 -721 3 -859 7 -139 3 -253 3 -253 0z"/>
 <path d="M8330 3275 l-155 -155 344 0 343 0 34 -34 c44 -44 45 -83 5 -128 l-29 -33 -340 -5 -340 -5 148 -154 c122 -127 152 -153 170 -148 34 9 950 401 950 407 0 7 -927 402 -954 407 -16 3 -56 -31 -176 -152z"/>
 <path d="M3838 2625 c53 -157 100 -285 105 -285 6 0 170 120 302 221 6 4 68 -35 144 -93 73 -55 134 -98 137 -96 2 3 -36 123 -85 269 l-88 264 -306 3 -306 2 97 -285z"/>
 <path d="M6067 2653 c-48 -141 -86 -257 -84 -259 1 -1 55 37 121 86 l118 89 159 -120 c102 -77 161 -115 164 -107 3 7 47 138 98 291 l93 277 -290 0 -291 0 -88 -257z"/>
 <path d="M5003 2517 c-123 -101 -230 -190 -239 -199 -15 -15 2 -71 222 -732 131 -393 242 -712 245 -708 7 8 481 1440 483 1459 1 13 -460 363 -477 362 -7 0 -112 -82 -234 -182z"/>
 <path d="M4125 2239 c-66 -50 -119 -96 -119 -103 1 -7 57 -176 124 -375 77 -225 126 -357 131 -349 4 8 62 176 129 373 l121 359 -23 19 c-70 55 -227 167 -234 167 -5 0 -63 -41 -129 -91z"/>
 <path d="M6099 2244 c-63 -47 -118 -89 -123 -94 -8 -8 226 -723 243 -742 4 -4 63 160 133 365 l125 372 -123 93 c-68 50 -127 92 -132 92 -5 0 -60 -38 -123 -86z"/>
 </g>

</svg>